<?xml version="1.0" standalone="no"?>
<!DOCTYPE svg PUBLIC "-//W3C//DTD SVG 20010904//EN"
 "http://www.w3.org/TR/2001/REC-SVG-20010904/DTD/svg10.dtd">
<svg version="1.0" xmlns="http://www.w3.org/2000/svg"
 width="1080.000000pt" height="1080.000000pt" viewBox="0 0 1080.000000 1080.000000"
 preserveAspectRatio="xMidYMid meet">

<g transform="translate(0.000000,1080.000000) scale(0.100000,-0.100000)"
fill="#000000" stroke="none">
<path d="M6270 10071 c-70 -36 -106 -125 -77 -186 19 -39 57 -70 152 -121 88
-47 105 -62 105 -89 0 -75 -121 -72 -243 7 -52 33 -54 33 -88 -25 -14 -24 9
-51 71 -82 165 -84 323 -67 371 39 24 53 24 83 -2 126 -27 44 -38 52 -124 97
-107 54 -125 70 -125 104 0 41 46 61 111 49 41 -8 62 -17 131 -60 13 -8 21 -4
38 17 11 15 20 36 18 46 -11 72 -247 127 -338 78z"/>
<path d="M5360 10054 c-19 -8 -42 -22 -52 -31 -17 -15 -18 -14 -18 11 0 26 -1
27 -52 24 l-53 -3 0 -180 c0 -99 4 -193 8 -208 7 -26 11 -28 55 -25 l47 3 5
125 c5 133 14 159 57 179 13 6 34 11 47 11 25 0 36 17 36 55 0 57 -18 66 -80
39z"/>
<path d="M4817 10026 c-101 -28 -161 -106 -161 -211 0 -107 67 -184 179 -208
65 -13 144 2 198 39 44 30 46 47 10 78 l-27 24 -27 -21 c-56 -41 -175 -31
-201 16 -15 30 14 47 79 47 68 0 205 20 220 32 25 20 -5 103 -53 152 -57 56
-134 75 -217 52z m114 -92 c28 -14 52 -51 43 -66 -2 -3 -35 -9 -72 -13 -37 -3
-82 -8 -99 -11 -29 -4 -33 -2 -33 18 1 68 92 108 161 72z"/>
<path d="M4299 9925 c-25 -13 -51 -31 -58 -39 -12 -14 -15 -15 -25 -1 -9 12
-21 13 -56 7 -44 -8 -45 -9 -43 -43 2 -29 60 -286 80 -353 4 -16 12 -18 51
-12 25 3 50 10 55 15 6 6 -1 52 -17 118 -14 59 -26 120 -26 134 0 61 82 113
137 87 37 -18 58 -63 84 -181 12 -54 27 -101 34 -104 19 -7 92 15 98 30 2 6
-1 32 -8 57 -7 25 -22 85 -33 133 -32 132 -76 177 -172 176 -38 0 -69 -7 -101
-24z"/>
<path d="M6714 9816 c-3 -13 -1 -34 6 -45 9 -17 20 -21 61 -21 77 0 139 -41
139 -92 0 -33 -1 -33 -92 -8 -87 24 -129 25 -169 4 -31 -16 -59 -66 -59 -106
0 -80 139 -161 223 -129 24 9 27 8 27 -10 0 -14 13 -26 42 -39 24 -10 47 -15
51 -11 17 17 97 264 97 299 0 100 -118 182 -262 182 -53 0 -58 -2 -64 -24z
m136 -242 c46 -19 50 -35 15 -69 -34 -35 -85 -34 -126 3 -27 24 -29 30 -20 55
9 23 16 27 51 27 22 0 58 -7 80 -16z"/>
<path d="M7257 9813 c-8 -15 -34 -73 -57 -128 -53 -127 -59 -141 -110 -253
-23 -50 -40 -100 -38 -110 2 -9 20 -25 41 -36 33 -16 41 -16 53 -5 22 22 226
500 220 515 -5 14 -22 22 -73 38 -17 6 -25 1 -36 -21z"/>
<path d="M3888 9809 c-10 -5 -18 -19 -18 -29 0 -16 -7 -19 -58 -18 -81 1 -124
-16 -171 -67 -78 -85 -76 -189 8 -278 74 -80 213 -75 297 12 36 37 47 30 47
-30 0 -72 -71 -119 -176 -119 -59 0 -65 -2 -71 -22 -10 -39 -7 -66 10 -72 31
-12 105 -6 166 15 126 41 188 108 188 204 0 36 -15 90 -54 195 -85 227 -81
220 -119 220 -17 0 -40 -5 -49 -11z m10 -153 c32 -31 41 -105 18 -141 -17 -26
-74 -55 -110 -55 -40 0 -84 36 -97 80 -11 34 -10 46 4 75 34 71 133 93 185 41z"/>
<path d="M3310 9783 c-28 -10 -60 -46 -60 -68 0 -29 36 -65 64 -65 35 0 76 37
76 69 0 46 -41 78 -80 64z"/>
<path d="M5727 9742 c-23 -25 -22 -85 1 -105 28 -25 87 -22 106 5 22 31 20 74
-4 98 -26 26 -81 26 -103 2z"/>
<path d="M3378 9599 c-22 -11 -38 -27 -38 -37 1 -9 38 -91 83 -182 56 -112 88
-166 100 -168 25 -5 74 16 81 34 6 16 -163 367 -179 371 -5 1 -27 -7 -47 -18z"/>
<path d="M7437 9526 c-90 -32 -147 -111 -147 -204 0 -65 10 -91 56 -142 46
-51 120 -89 182 -96 64 -7 77 4 65 52 -8 38 -10 39 -58 44 -82 8 -152 76 -137
132 7 28 16 24 187 -70 52 -29 100 -50 106 -46 38 23 51 150 23 210 -23 49
-89 102 -148 119 -60 18 -80 18 -129 1z m126 -92 c46 -23 67 -53 67 -97 0 -35
-2 -38 -22 -31 -20 6 -157 80 -167 90 -7 6 22 36 44 44 30 13 43 12 78 -6z"/>
<path d="M3153 9481 c-153 -53 -228 -176 -157 -260 38 -45 77 -48 176 -14 87
30 113 32 122 7 14 -36 -53 -85 -142 -105 -50 -10 -52 -12 -52 -44 0 -54 20
-61 96 -36 159 52 240 161 187 252 -33 56 -81 60 -215 17 -55 -18 -70 -19 -82
-8 -9 7 -16 18 -16 24 0 27 70 76 143 100 22 7 31 29 23 61 -8 30 -15 30 -83
6z"/>
<path d="M7832 9284 c-29 -20 -52 -65 -52 -102 0 -33 37 -87 99 -147 44 -42
49 -56 26 -75 -25 -21 -65 -2 -127 61 -33 32 -65 59 -71 59 -21 -1 -47 -27
-47 -47 0 -48 115 -142 213 -173 95 -30 190 68 146 153 -7 12 -38 50 -70 84
-61 64 -69 82 -44 103 23 19 71 -5 127 -63 46 -48 47 -48 72 -32 15 10 26 27
26 40 0 28 -85 109 -143 135 -51 24 -125 26 -155 4z"/>
<path d="M2731 9216 c-92 -33 -169 -147 -157 -232 7 -55 25 -89 67 -132 80
-82 197 -82 310 -1 38 27 79 91 79 123 0 21 -6 26 -35 32 -20 3 -37 5 -38 3
-2 -2 -15 -23 -29 -45 -33 -52 -100 -82 -150 -68 -17 5 -33 14 -35 20 -3 10
73 71 197 157 22 16 40 37 40 47 0 22 -61 77 -106 96 -40 17 -97 17 -143 0z
m114 -96 c10 -11 16 -22 14 -23 -52 -43 -119 -91 -140 -103 -26 -13 -29 -13
-39 6 -16 30 4 84 43 115 40 31 96 34 122 5z"/>
<path d="M8335 9136 c-16 -7 -41 -25 -54 -40 -23 -24 -26 -25 -42 -10 -22 20
-42 13 -65 -22 -18 -26 -17 -27 5 -45 l23 -19 -97 -121 c-53 -66 -94 -126 -92
-134 3 -7 22 -25 41 -40 42 -32 29 -41 144 102 45 56 87 105 93 108 5 4 18 0
27 -8 9 -9 29 -20 44 -26 24 -9 29 -7 48 18 l20 29 -35 31 c-37 32 -43 49 -23
69 20 20 63 14 88 -13 21 -23 24 -23 51 -9 41 21 38 54 -7 94 -59 51 -110 62
-169 36z"/>
<path d="M2263 8971 c-17 -4 -51 -20 -75 -34 -63 -37 -238 -205 -238 -228 0
-18 312 -361 347 -382 19 -12 32 -2 144 108 127 125 153 172 154 275 0 66 -4
81 -29 120 -42 66 -66 89 -120 117 -52 27 -132 37 -183 24z m102 -120 c103
-48 146 -152 100 -241 -17 -33 -120 -140 -135 -140 -4 0 -60 57 -125 126
l-116 127 38 39 c49 51 87 78 132 94 48 17 59 17 106 -5z"/>
<path d="M8460 8813 c-59 -9 -73 -16 -115 -54 -25 -23 -51 -60 -61 -85 -59
-155 112 -343 276 -304 60 15 121 65 149 125 25 54 27 95 5 158 -21 61 -108
143 -162 152 -20 4 -44 8 -52 9 -8 2 -26 1 -40 -1z m120 -130 c58 -53 47 -143
-23 -190 -99 -68 -217 41 -162 148 36 69 131 90 185 42z"/>
<path d="M8822 8448 c-26 -24 -94 -81 -150 -127 -56 -46 -102 -90 -102 -97 0
-20 50 -74 68 -74 10 0 55 34 102 75 98 86 129 94 194 50 20 -14 43 -25 50
-25 17 0 56 42 56 61 0 16 -31 39 -75 55 -25 9 -29 16 -27 38 3 20 -4 37 -24
57 -15 16 -31 29 -36 29 -4 0 -29 -19 -56 -42z"/>
<path d="M1643 8377 c-29 -43 -29 -75 2 -166 14 -41 23 -81 20 -89 -4 -10 -25
-13 -88 -12 -127 3 -123 4 -161 -46 -20 -26 -33 -50 -30 -55 3 -5 76 -9 163
-9 l157 0 50 -155 c27 -85 53 -155 57 -155 13 0 67 63 73 85 3 11 -11 65 -30
119 -20 54 -33 102 -31 107 3 4 54 5 113 2 l108 -6 37 45 c63 76 61 77 -130
80 l-168 3 -42 125 c-42 126 -57 160 -71 160 -4 0 -17 -15 -29 -33z"/>
<path d="M8993 8161 c-67 -17 -135 -82 -153 -147 -24 -86 9 -186 84 -252 42
-37 100 -56 127 -41 20 10 22 20 13 67 -5 25 -12 31 -44 36 -71 11 -108 107
-66 171 18 28 84 65 117 65 51 0 117 -85 105 -134 -8 -32 13 -55 55 -62 32 -5
37 -3 42 17 24 87 -32 200 -128 259 -36 22 -108 32 -152 21z"/>
<path d="M1281 7855 c-30 -51 -27 -68 17 -91 20 -11 78 -42 127 -69 117 -62
153 -89 172 -131 22 -46 5 -101 -44 -144 -54 -47 -88 -40 -269 58 l-149 82
-22 -26 c-26 -29 -40 -72 -27 -84 5 -4 69 -40 143 -80 199 -108 249 -119 339
-74 39 19 61 40 91 85 86 129 80 237 -18 321 -35 30 -294 177 -327 186 -6 2
-21 -13 -33 -33z"/>
<path d="M9205 7752 c-47 -23 -99 -75 -114 -115 -30 -78 -4 -189 61 -262 62
-71 107 -76 122 -13 5 22 1 30 -23 47 -65 46 -91 138 -55 190 19 27 22 24 65
-54 18 -33 49 -89 69 -125 19 -36 43 -66 53 -68 24 -5 74 33 105 82 57 89 21
231 -76 298 -58 40 -147 48 -207 20z m183 -115 c26 -24 43 -77 35 -109 -9 -35
-34 -60 -48 -48 -11 9 -95 163 -95 174 0 8 34 13 60 8 14 -2 35 -14 48 -25z"/>
<path d="M921 7399 c-6 -18 -11 -39 -11 -48 0 -9 66 -74 146 -146 81 -71 208
-185 283 -252 74 -68 141 -123 147 -123 13 0 34 51 34 80 0 9 -29 41 -64 71
-35 30 -146 128 -247 218 -259 232 -258 231 -268 231 -5 0 -14 -14 -20 -31z"/>
<path d="M801 7097 c-6 -8 -14 -27 -17 -44 -6 -29 1 -35 232 -214 363 -281
375 -289 385 -284 4 3 13 24 19 47 9 32 9 43 -2 53 -7 7 -138 108 -290 224
-153 117 -280 216 -283 221 -9 14 -31 12 -44 -3z"/>
<path d="M9320 7041 c0 -38 23 -83 47 -92 13 -5 42 -9 63 -9 47 0 45 2 95
-144 l37 -109 -46 -43 c-25 -23 -46 -44 -46 -46 0 -2 7 -28 15 -56 15 -50 17
-52 39 -40 13 7 114 98 225 202 148 139 200 193 195 205 -3 9 -13 35 -21 59
-8 23 -20 42 -26 43 -48 2 -258 20 -382 33 -194 20 -195 20 -195 -3z m478
-131 c9 -4 -12 -29 -69 -79 -45 -39 -86 -68 -91 -63 -11 11 -57 145 -52 153 5
8 195 -1 212 -11z"/>
<path d="M779 6659 c-6 -11 -11 -39 -12 -61 -2 -38 0 -42 28 -50 54 -15 339
-90 395 -103 30 -8 63 -17 73 -20 13 -6 21 1 32 29 8 19 15 46 15 60 0 28 -5
30 -225 85 -66 16 -159 41 -208 55 -86 24 -87 24 -98 5z"/>
<path d="M9675 6514 c-23 -8 -57 -28 -78 -45 -75 -62 -84 -201 -18 -280 25
-29 26 -35 13 -45 -11 -8 -13 -21 -8 -57 7 -43 10 -47 34 -47 24 0 184 31 457
89 l80 17 -1 47 c0 26 -5 52 -10 57 -7 7 -34 5 -83 -5 -97 -20 -115 -20 -106
3 27 66 11 153 -38 209 -59 68 -151 89 -242 57z m163 -132 c50 -47 54 -101 12
-155 -40 -50 -132 -59 -178 -17 -54 51 -43 151 21 183 53 26 110 22 145 -11z"/>
<path d="M711 6381 c-6 -11 -11 -36 -11 -56 0 -45 6 -48 180 -75 144 -22 212
-46 229 -78 6 -12 11 -44 11 -72 0 -46 -4 -56 -35 -87 l-36 -36 -82 7 c-45 3
-134 14 -197 25 -63 10 -117 17 -119 15 -2 -2 -6 -28 -9 -58 l-4 -55 38 -10
c69 -17 267 -46 324 -46 114 0 195 71 221 193 23 114 -10 210 -90 261 -46 29
-113 45 -296 71 -44 6 -88 13 -97 16 -10 3 -21 -3 -27 -15z"/>
<path d="M9765 5960 c-71 -4 -133 -8 -137 -9 -5 0 -8 -26 -8 -56 l0 -55 134 0
c130 0 135 -1 165 -26 24 -20 31 -34 31 -61 0 -72 -36 -93 -155 -93 -40 0 -93
-3 -119 -6 l-46 -7 0 -53 0 -54 138 0 c154 0 173 -6 192 -65 9 -27 8 -40 -2
-62 -19 -39 -53 -53 -133 -53 -38 0 -94 -3 -123 -7 l-53 -6 3 -56 3 -56 130 4
c199 5 265 39 282 145 7 47 -12 122 -42 159 l-23 30 26 40 c35 52 36 132 4
194 -19 37 -20 43 -6 51 11 6 14 21 12 58 l-3 49 -70 1 c-38 1 -128 -2 -200
-6z"/>
<path d="M1062 5530 c-22 -9 -42 -46 -42 -76 0 -25 47 -64 78 -64 65 0 97 89
46 129 -29 23 -46 25 -82 11z"/>
<path d="M9626 5118 c-12 -48 -7 -78 17 -87 40 -16 376 -36 388 -24 6 6 14 32
16 56 5 45 5 46 -28 51 -39 6 -312 26 -357 26 -22 0 -31 -6 -36 -22z"/>
<path d="M10144 5102 c-60 -48 -20 -146 53 -127 53 13 63 108 14 134 -27 15
-42 13 -67 -7z"/>
<path d="M750 5073 c0 -16 11 -48 25 -72 30 -52 30 -51 5 -51 -16 0 -19 -5
-14 -32 14 -88 8 -82 82 -74 37 4 119 11 182 16 170 15 162 11 158 73 l-3 52
-124 -3 c-152 -4 -172 2 -199 69 -21 49 -21 49 -66 49 -44 0 -46 -2 -46 -27z"/>
<path d="M9605 4869 c-4 -27 -5 -53 -2 -55 3 -3 44 -11 91 -19 172 -28 206
-48 206 -122 0 -34 -6 -50 -26 -70 -24 -24 -29 -25 -102 -19 -42 4 -95 11
-117 16 -22 5 -52 10 -67 10 -24 0 -27 -4 -33 -51 -4 -27 -5 -53 -2 -56 10
-10 221 -43 275 -43 84 0 141 40 161 115 14 52 13 91 -3 137 -13 35 -12 37 8
40 15 2 23 13 29 47 5 26 5 47 -1 53 -10 10 -336 68 -382 68 -26 0 -29 -3 -35
-51z"/>
<path d="M940 4754 c-81 -35 -124 -101 -123 -189 0 -100 46 -178 128 -216 115
-53 263 14 296 136 15 53 4 145 -22 198 -42 84 -72 98 -102 47 -18 -29 -17
-31 8 -73 35 -60 35 -133 0 -171 -13 -14 -28 -26 -33 -26 -5 0 -22 69 -38 153
-28 146 -30 152 -54 154 -14 2 -41 -4 -60 -13z m54 -191 c10 -49 19 -95 19
-103 3 -22 -24 -22 -60 -1 -42 26 -62 86 -43 131 11 28 44 60 61 60 3 0 14
-39 23 -87z"/>
<path d="M1054 4266 c-90 -42 -134 -130 -113 -228 11 -49 60 -128 82 -128 7 0
4 -7 -7 -15 -17 -13 -18 -18 -6 -60 7 -25 16 -48 20 -50 4 -2 54 11 111 29 57
19 177 57 267 86 100 31 162 56 162 64 0 17 -21 79 -30 89 -7 8 -35 2 -132
-27 l-46 -15 5 54 c5 43 1 63 -20 109 -51 110 -172 148 -293 92z m172 -102
c51 -34 67 -99 39 -154 -20 -38 -63 -60 -117 -60 -66 1 -108 44 -108 113 0 84
116 146 186 101z"/>
<path d="M9487 4163 c-25 -17 -48 -49 -70 -92 -28 -57 -32 -75 -32 -148 0 -83
0 -84 -32 -104 -31 -20 -32 -22 -18 -47 29 -55 29 -55 68 -36 l35 17 43 -37
c50 -42 71 -45 93 -11 22 33 20 40 -11 69 -27 25 -27 26 -8 40 33 25 86 48 99
43 7 -3 18 -24 26 -47 45 -135 199 -124 248 19 39 114 -28 223 -127 207 -20
-3 -44 -7 -55 -8 -14 -2 -21 7 -30 37 -27 87 -72 125 -148 125 -31 0 -54 -8
-81 -27z m114 -93 c20 -11 49 -60 49 -84 0 -9 -33 -31 -82 -55 l-83 -41 -7 27
c-17 62 32 163 78 163 14 0 34 -5 45 -10z m243 -156 c21 -21 20 -57 -3 -85
-28 -35 -71 -18 -89 36 -12 35 -11 41 4 52 24 18 69 16 88 -3z"/>
<path d="M1252 3759 c-141 -70 -159 -264 -35 -381 112 -106 296 -56 352 95 36
94 -34 244 -135 292 -47 22 -130 19 -182 -6z m168 -106 c36 -21 65 -82 56
-119 -4 -15 -22 -42 -41 -61 -28 -28 -40 -33 -83 -33 -60 0 -97 25 -111 75
-16 58 3 99 64 136 37 23 78 24 115 2z"/>
<path d="M9172 3462 c-33 -48 -110 -186 -133 -237 -81 -180 52 -384 249 -385
73 0 138 28 191 82 42 43 171 257 171 285 0 17 -42 45 -212 145 -117 68 -221
127 -230 131 -12 4 -23 -2 -36 -21z m117 -164 c31 -17 95 -56 143 -85 l87 -54
-36 -62 c-67 -115 -104 -142 -194 -135 -43 3 -66 11 -94 32 -47 36 -79 106
-72 153 10 57 77 183 98 183 6 0 37 -14 68 -32z"/>
<path d="M1525 3283 c-82 -47 -175 -99 -205 -115 -113 -63 -140 -80 -140 -90
0 -18 43 -88 55 -88 6 0 83 41 170 91 88 49 195 109 237 132 43 23 80 48 83
55 5 13 -28 87 -42 95 -5 3 -75 -33 -158 -80z"/>
<path d="M1738 3134 c-14 -25 -17 -64 -6 -73 73 -58 89 -77 98 -112 11 -42 5
-82 -15 -99 -10 -8 -33 20 -101 120 -48 71 -91 130 -96 130 -17 0 -92 -76
-105 -107 -43 -103 15 -242 122 -292 65 -31 128 -28 192 9 99 57 135 154 98
260 -17 47 -65 116 -101 143 -27 20 -79 33 -86 21z m-48 -249 c28 -41 50 -79
50 -84 0 -19 -46 -23 -82 -8 -36 15 -68 65 -68 106 0 27 29 73 41 65 5 -3 32
-39 59 -79z"/>
<path d="M8878 2900 c-66 -12 -138 -77 -175 -157 -39 -84 -23 -125 40 -109 15
3 27 20 40 55 22 63 75 111 122 111 63 0 60 -7 -73 -179 -39 -50 -61 -88 -58
-97 3 -8 31 -27 62 -41 45 -20 66 -24 105 -20 61 7 120 46 159 106 38 57 44
78 38 146 -10 124 -130 210 -260 185z m158 -185 c47 -71 -64 -191 -135 -146
-8 5 -10 14 -6 22 22 38 108 149 116 149 5 0 16 -11 25 -25z"/>
<path d="M1950 2644 c-91 -29 -177 -56 -192 -59 -15 -4 -32 -13 -39 -21 -10
-12 -6 -21 20 -48 38 -39 26 -40 215 20 60 19 110 33 113 31 2 -3 -26 -61 -62
-131 -36 -69 -65 -134 -65 -144 0 -20 49 -72 68 -72 7 0 56 87 109 194 l97
194 -38 46 c-20 25 -43 46 -49 45 -7 0 -86 -25 -177 -55z"/>
<path d="M8447 2459 l-35 -41 42 -102 c93 -221 129 -296 142 -296 16 0 64 50
64 67 0 7 -22 63 -49 125 -27 62 -52 123 -55 135 -6 20 -5 21 21 13 44 -14
101 -36 183 -70 l75 -31 39 41 c21 23 34 45 30 50 -5 4 -40 19 -79 33 -38 14
-123 46 -188 71 -66 26 -127 46 -137 46 -10 0 -34 -18 -53 -41z"/>
<path d="M2322 2391 c-8 -5 -12 -21 -10 -37 2 -23 12 -33 49 -51 52 -24 98
-74 100 -106 2 -34 -2 -61 -10 -70 -4 -4 -49 32 -100 80 -153 143 -148 141
-195 68 -101 -160 67 -375 254 -325 56 15 143 100 153 149 18 87 0 145 -63
214 -68 74 -137 105 -178 78z m15 -265 c62 -59 62 -61 40 -73 -83 -46 -191 56
-146 138 13 24 16 22 106 -65z"/>
<path d="M8207 2199 c-68 -16 -145 -77 -178 -141 -33 -64 -23 -88 36 -88 17 0
30 11 47 42 28 51 80 88 124 88 38 0 64 -8 64 -21 0 -4 -52 -52 -115 -105 -63
-53 -115 -102 -115 -110 0 -19 49 -63 95 -85 81 -38 170 -14 243 65 50 54 62
82 62 142 0 93 -66 183 -154 209 -55 17 -56 17 -109 4z m157 -195 c25 -64 -30
-144 -99 -144 -20 0 -45 5 -56 11 -17 9 -18 13 -7 26 18 22 140 123 149 123 4
0 10 -7 13 -16z"/>
<path d="M2622 2008 c-24 -12 -63 -44 -87 -69 -107 -114 -93 -277 33 -390 77
-70 222 -168 237 -163 26 10 305 399 305 425 0 17 -56 65 -165 140 -83 58
-124 73 -205 77 -63 2 -82 -1 -118 -20z m211 -105 c18 -9 56 -34 84 -56 l53
-39 -37 -52 c-20 -28 -64 -88 -96 -134 -33 -45 -64 -85 -69 -88 -13 -9 -113
62 -148 105 -67 80 -41 204 54 262 39 24 116 25 159 2z"/>
<path d="M7833 1934 c-18 -14 -33 -31 -33 -38 0 -7 51 -85 113 -172 61 -87
124 -177 139 -199 15 -22 38 -53 51 -69 l24 -30 35 22 c67 41 77 19 -166 362
-56 80 -109 146 -117 148 -8 1 -29 -10 -46 -24z"/>
<path d="M7560 1762 c-67 -34 -92 -56 -121 -106 -49 -86 -34 -189 37 -260 100
-100 281 -68 360 64 63 103 26 236 -81 297 -50 29 -143 31 -195 5z m131 -98
c30 -15 68 -80 69 -117 0 -10 -7 -31 -15 -47 -36 -69 -137 -79 -187 -19 -89
106 13 246 133 183z"/>
<path d="M7153 1715 c-41 -18 -41 -34 -3 -118 17 -37 30 -69 30 -72 0 -3 -24
-5 -53 -5 -112 0 -207 -90 -207 -197 0 -131 91 -233 208 -233 65 0 114 21 162
71 22 23 40 36 40 30 0 -16 52 -13 78 5 33 23 29 40 -38 189 -5 11 -37 85 -71
165 -80 189 -83 193 -146 165z m62 -306 c38 -34 60 -92 49 -134 -8 -31 -54
-71 -93 -80 -64 -14 -131 53 -131 130 0 48 21 82 64 101 48 20 72 17 111 -17z"/>
<path d="M3422 1610 c-39 -9 -93 -45 -120 -80 -27 -36 -52 -105 -52 -144 0
-108 110 -213 215 -204 25 2 45 2 45 1 0 -1 -16 -36 -35 -79 -19 -42 -35 -84
-35 -93 0 -11 18 -25 46 -38 l46 -21 55 116 c30 64 84 177 119 251 35 74 64
140 64 148 0 16 -57 53 -82 53 -9 0 -19 -6 -22 -12 -3 -9 -8 -8 -16 5 -45 70
-150 115 -228 97z m126 -120 c18 -11 40 -36 48 -56 14 -33 13 -39 -9 -88 -43
-93 -129 -109 -192 -35 -45 54 -27 140 38 179 41 25 73 25 115 0z"/>
<path d="M3873 1403 c-17 -6 -16 -43 1 -65 9 -13 27 -18 61 -18 55 0 107 -22
135 -58 21 -26 27 -72 10 -72 -5 0 -69 20 -142 45 -73 25 -137 45 -144 45 -17
0 -34 -47 -34 -95 0 -134 119 -230 263 -211 85 12 145 66 173 158 16 54 16 60
0 110 -34 103 -131 169 -249 167 -34 0 -68 -3 -74 -6z m85 -243 c34 -11 74
-26 89 -34 l27 -14 -27 -25 c-35 -32 -71 -38 -114 -21 -54 23 -98 114 -55 114
9 0 45 -9 80 -20z"/>
<path d="M6613 1350 c-59 -12 -132 -60 -154 -102 -7 -13 -1 -21 26 -38 l35
-21 41 33 c36 29 48 33 100 33 47 0 63 -4 81 -22 12 -12 19 -25 16 -29 -4 -3
-70 -25 -148 -49 -78 -24 -144 -46 -147 -49 -13 -13 19 -85 53 -119 48 -47
110 -71 169 -65 62 7 131 45 169 91 29 37 31 43 31 125 0 79 -3 91 -28 128
-49 72 -144 105 -244 84z m177 -235 c0 -52 -60 -105 -119 -105 -29 0 -103 52
-91 63 10 9 165 56 188 57 13 0 22 -6 22 -15z"/>
<path d="M6300 1263 c-48 -7 -81 -25 -76 -42 12 -40 36 -187 36 -218 0 -26 -8
-42 -31 -64 -17 -16 -40 -29 -50 -29 -25 0 -33 -21 -25 -65 6 -31 11 -35 36
-35 20 0 43 12 70 36 27 25 40 31 40 21 0 -24 17 -30 66 -22 41 6 44 8 44 36
0 17 -7 58 -15 92 -8 34 -24 112 -36 172 -11 61 -24 112 -27 116 -4 3 -18 3
-32 2z"/>
<path d="M4428 1224 c-14 -22 -74 -135 -134 -252 -120 -233 -119 -232 -37
-232 39 0 44 3 61 38 37 76 165 312 168 309 6 -5 33 -158 49 -271 8 -60 20
-115 26 -123 8 -9 28 -13 62 -11 57 3 44 -13 151 188 77 145 83 156 89 150 3
-3 15 -68 27 -145 41 -272 33 -250 95 -259 64 -10 65 -6 44 134 -10 69 -28
187 -39 262 -11 76 -23 144 -26 152 -5 13 -81 36 -117 36 -16 0 -10 11 -154
-260 -20 -36 -38 -69 -40 -74 -9 -14 -21 16 -28 69 -3 27 -12 91 -20 140 -8
50 -17 106 -20 127 -6 40 -13 44 -84 54 -49 6 -49 6 -73 -32z"/>
<path d="M5730 1177 c-20 -10 -26 -21 -28 -59 -4 -54 15 -78 59 -78 32 0 79
38 79 64 0 31 -24 65 -53 76 -16 5 -30 10 -31 10 -1 0 -12 -6 -26 -13z"/>
</g>
</svg>
